<?xml version="1.0" standalone="no"?>
<!DOCTYPE svg PUBLIC "-//W3C//DTD SVG 20010904//EN"
 "http://www.w3.org/TR/2001/REC-SVG-20010904/DTD/svg10.dtd">
<svg version="1.0" xmlns="http://www.w3.org/2000/svg"
 width="240.000000pt" height="130.000000pt" viewBox="0 0 240.000000 130.000000"
 preserveAspectRatio="xMidYMid meet">

<g transform="translate(0.000000,130.000000) scale(0.100000,-0.100000)"
fill="#000000" stroke="none">
<path d="M1585 1286 c-11 -8 -170 -165 -354 -349 -238 -239 -339 -347 -352
-378 -55 -122 -109 -270 -109 -298 0 -25 5 -34 27 -42 30 -11 37 -9 244 76
l117 48 346 346 c225 225 346 354 346 367 0 11 -15 35 -33 54 -76 78 -195 190
-204 190 -5 0 -17 -6 -28 -14z m122 -128 c51 -51 93 -96 93 -99 0 -4 -147
-154 -327 -333 l-326 -327 -25 25 -26 25 292 291 c161 161 292 298 292 305 0
8 -5 17 -11 21 -7 4 -133 -115 -308 -290 l-296 -296 -53 53 c-28 29 -52 57
-52 62 0 10 640 655 650 655 2 0 46 -42 97 -92z m-689 -693 c57 -56 83 -88 77
-94 -12 -12 -181 -81 -199 -81 -7 0 -23 11 -36 25 l-24 25 24 58 c46 114 63
152 67 152 2 0 43 -38 91 -85z m-180 -193 c2 -7 -3 -12 -12 -12 -9 0 -16 7
-16 16 0 17 22 14 28 -4z"/>
<path d="M623 1033 c-12 -2 -34 -18 -48 -34 l-25 -31 0 -441 c0 -421 1 -444
20 -474 31 -52 54 -54 531 -51 l431 3 24 28 24 28 0 278 c0 230 -2 280 -14
284 -8 3 -17 3 -20 0 -3 -4 -6 -125 -6 -270 0 -163 -4 -272 -10 -284 -10 -18
-26 -19 -454 -19 -416 0 -444 1 -459 18 -15 17 -17 63 -17 459 0 355 3 443 13
452 9 7 105 12 283 13 261 3 269 4 269 23 0 19 -7 20 -260 21 -143 1 -270 -1
-282 -3z"/>
</g>
</svg>
