<?xml version="1.0" standalone="no"?>
<!DOCTYPE svg PUBLIC "-//W3C//DTD SVG 20010904//EN"
 "http://www.w3.org/TR/2001/REC-SVG-20010904/DTD/svg10.dtd">
<svg version="1.0" xmlns="http://www.w3.org/2000/svg"
 width="225.000000pt" height="225.000000pt" viewBox="0 0 225.000000 225.000000"
 preserveAspectRatio="xMidYMid meet">

<g transform="translate(0.000000,225.000000) scale(0.100000,-0.100000)"
fill="#000000" stroke="none">
<path d="M953 2055 c-8 -24 6 -33 57 -38 25 -2 -14 -4 -87 -5 l-131 -2 -26
-31 c-14 -17 -26 -35 -26 -40 0 -5 -62 -9 -143 -9 -127 0 -146 -2 -160 -18
-10 -10 -17 -24 -17 -30 0 -7 -13 -12 -29 -12 -27 0 -31 -6 -64 -92 -19 -51
-39 -101 -42 -110 -6 -15 -2 -18 24 -18 37 0 34 13 61 -235 12 -104 26 -228
31 -275 5 -47 28 -242 50 -435 22 -192 42 -373 46 -402 5 -50 7 -53 47 -67
199 -72 963 -72 1162 0 40 14 42 17 47 67 4 29 24 210 46 402 22 193 45 388
50 435 5 47 19 171 31 275 27 248 24 235 61 235 26 0 30 3 24 18 -3 9 -23 59
-42 110 -33 86 -37 92 -64 92 -18 0 -29 5 -29 13 0 8 -8 21 -18 30 -15 14 -42
17 -160 17 -80 0 -142 4 -142 9 0 5 -12 23 -26 40 l-26 31 -131 2 c-85 1 -114
3 -82 7 41 5 50 9 50 26 0 19 -8 20 -168 23 -146 2 -168 0 -174 -13z m-204
-639 c50 -26 51 -35 51 -496 l0 -428 -25 -30 c-32 -38 -65 -46 -110 -28 -64
27 -65 35 -65 493 0 368 2 411 18 443 27 55 78 73 131 46z m274 3 c58 -30 57
-15 57 -491 l0 -436 -25 -30 c-42 -50 -98 -50 -144 -1 -21 22 -21 30 -21 462
0 280 4 445 10 457 12 23 57 49 83 50 10 0 28 -5 40 -11z m287 -4 c16 -8 34
-24 40 -34 6 -13 10 -177 10 -458 0 -432 0 -440 -21 -462 -46 -49 -102 -49
-144 1 l-25 30 0 436 c0 399 2 439 18 458 36 45 74 54 122 29z m297 -7 c40
-33 43 -62 43 -483 0 -456 -1 -464 -65 -491 -45 -18 -78 -10 -110 28 l-25 30
0 431 c1 462 1 465 51 494 27 15 83 11 106 -9z"/>
</g>
</svg>
