<?xml version="1.0" standalone="no"?>
<!DOCTYPE svg PUBLIC "-//W3C//DTD SVG 20010904//EN"
 "http://www.w3.org/TR/2001/REC-SVG-20010904/DTD/svg10.dtd">
<svg version="1.0" xmlns="http://www.w3.org/2000/svg"
 width="301.000000pt" height="167.000000pt" viewBox="0 0 301.000000 167.000000"
 preserveAspectRatio="xMidYMid meet">

<g transform="translate(0.000000,167.000000) scale(0.100000,-0.100000)"
fill="#000000" stroke="none">
<path d="M797 1655 c-50 -17 -85 -50 -108 -100 -17 -37 -19 -77 -19 -625 0
-550 2 -587 19 -626 22 -49 70 -88 126 -103 25 -7 159 -11 359 -11 299 0 318
1 311 18 -5 9 -13 38 -18 65 l-11 47 -307 0 c-287 0 -308 1 -330 19 l-24 19 0
570 c0 546 1 571 19 591 19 21 22 21 625 21 333 0 611 -4 617 -8 31 -20 34
-55 34 -355 l0 -304 60 -26 60 -26 0 350 c0 271 -3 357 -14 382 -17 43 -76 93
-123 106 -25 7 -249 11 -638 11 -482 -1 -608 -4 -638 -15z"/>
<path d="M952 1334 c-19 -13 -22 -24 -22 -78 0 -80 15 -96 91 -96 75 0 91 14
97 83 4 50 2 58 -21 81 -21 21 -36 26 -74 26 -28 0 -58 -7 -71 -16z"/>
<path d="M1267 1322 c-12 -13 -17 -36 -17 -73 0 -60 5 -71 37 -88 32 -16 599
-15 633 2 22 11 25 20 28 79 5 104 25 98 -347 98 -295 0 -319 -1 -334 -18z"/>
<path d="M947 1002 c-12 -13 -17 -37 -17 -80 0 -74 18 -92 93 -92 38 0 53 5
74 26 23 23 25 31 21 81 -6 69 -22 83 -98 83 -42 0 -61 -5 -73 -18z"/>
<path d="M1267 1002 c-25 -28 -23 -126 3 -152 19 -19 33 -20 234 -20 193 0
219 2 262 20 26 11 78 26 116 32 l68 12 0 47 c0 82 12 79 -349 79 -295 0 -319
-1 -334 -18z"/>
<path d="M1881 750 c-68 -14 -132 -50 -186 -105 -148 -147 -148 -373 0 -520
151 -152 390 -147 534 10 140 154 129 383 -26 525 -83 76 -213 112 -322 90z
m139 -235 l0 -65 65 0 65 0 0 -65 0 -65 -65 0 -65 0 0 -65 0 -65 -65 0 -65 0
0 65 0 65 -65 0 -65 0 0 65 0 65 65 0 65 0 0 65 0 65 65 0 65 0 0 -65z"/>
<path d="M947 682 c-12 -13 -17 -37 -17 -80 0 -74 18 -92 93 -92 38 0 53 5 74
26 23 23 25 31 21 81 -6 69 -22 83 -98 83 -42 0 -61 -5 -73 -18z"/>
<path d="M1267 682 c-12 -13 -17 -37 -17 -75 0 -85 16 -97 129 -97 l89 0 17
49 c8 26 29 69 45 95 l30 46 -139 0 c-121 0 -140 -2 -154 -18z"/>
</g>
</svg>
